<svg version="1.1" xmlns="http://www.w3.org/2000/svg" xmlns:xlink="http://www.w3.org/1999/xlink" width="108.08032" height="109.46177" viewBox="0,0,108.08032,109.46177"><g transform="translate(-264.47399,-136.04129)"><g data-paper-data="{&quot;isPaintingLayer&quot;:true}" fill-rule="nonzero" stroke-linecap="round" stroke-dasharray="" stroke-dashoffset="0" style="mix-blend-mode: normal"><path d="M359.50906,201.85334c-5.81509,36.96666 -35.39002,32.18455 -63.99112,28.87686c-28.6011,-3.30769 -33.96041,-12.52486 -28.18382,-38.57949c5.7766,-26.05463 24.29098,-44.77027 54.05748,-44.12384c29.7665,0.64643 43.93255,16.85981 38.11746,53.82647z" fill="#f7aa32" stroke="none" stroke-width="1.99937" stroke-linejoin="round" stroke-miterlimit="10"/><path d="M347.26527,223.10671c6.48456,6.18911 -22.8644,15.06167 -53.82646,8.77856c-30.96206,-6.28311 -29.80215,-20.37937 -28.41483,-27.49077c1.38731,-7.1114 24.72086,-14.38132 44.58587,-8.77856c19.86501,5.60276 26.35194,18.98626 37.65542,27.49077z" fill="#fbede4" stroke="none" stroke-width="1.99937" stroke-linejoin="round" stroke-miterlimit="10"/><path d="M292.95818,176.98856c-0.48959,4.05329 -3.24812,7.24467 -6.8164,7.0729c-3.56828,-0.17178 -7.18465,-3.75741 -6.10548,-7.69495c1.19785,-4.37054 4.76479,-6.64397 6.8164,-7.0729c5.10602,-1.0675 6.65126,3.17641 6.10548,7.69495z" fill="#2c2c2b" stroke="none" stroke-width="1.99937" stroke-linejoin="round" stroke-miterlimit="10"/><path d="M304.05484,194.4928c-0.59621,4.03898 -3.06807,6.6675 -7.15082,6.6675c-4.08275,0 -7.29836,-3.31081 -7.39247,-7.39248c-0.08815,-3.82298 3.52021,-6.76103 7.60296,-6.76103c4.08275,0 7.41067,4.29974 6.94033,7.48601z" fill="#2c2c2b" stroke="none" stroke-width="1.99937" stroke-linejoin="round" stroke-miterlimit="10"/><path d="M307.76173,205.08755c-5.94532,0.62097 -12.97873,3.27011 -11.78176,-6.69943c-2.57254,8.43708 -6.72314,6.27781 -10.39567,5.31334" fill="none" stroke="#2c2c2b" stroke-width="6" stroke-linejoin="round" stroke-miterlimit="4"/><path d="M320.59706,179.74907c-0.48959,4.05329 -3.24812,7.24467 -6.8164,7.0729c-3.56828,-0.17178 -7.18465,-3.75741 -6.10548,-7.69495c1.19785,-4.37054 4.76479,-6.64397 6.8164,-7.0729c5.10602,-1.0675 6.65126,3.17641 6.10548,7.69495z" fill="#2c2c2b" stroke="none" stroke-width="1.99937" stroke-linejoin="round" stroke-miterlimit="10"/><path d="M316.1002,148.44791l-29.0006,10.94725c0.9388,-7.36218 5.45558,-21.06769 12.86782,-23.04683c7.41223,-1.97914 12.66848,6.02507 16.13278,12.09959z" fill="#f7aa32" stroke="none" stroke-width="18" stroke-linejoin="round" stroke-miterlimit="4"/><path d="M338.76291,150.94465c5.35447,-3.08983 12.19783,-9.42572 18.43747,-4.41731c6.23964,5.00841 3.53307,16.83399 1.72851,25.35152z" fill="#f7aa32" stroke="none" stroke-width="18" stroke-linejoin="round" stroke-miterlimit="4"/><path d="M329.9906,241.21413l0.49782,-38.66369l36.67243,17.92137z" fill="#4cbf56" stroke="#45993d" stroke-width="5" stroke-linejoin="miter" stroke-miterlimit="10"/></g></g></svg>