<svg version="1.1" xmlns="http://www.w3.org/2000/svg" xmlns:xlink="http://www.w3.org/1999/xlink" width="474" height="263" viewBox="0,0,474,263"><g transform="translate(-83,-48.5)"><g data-paper-data="{&quot;isPaintingLayer&quot;:true}" fill-rule="nonzero" stroke-dasharray="" stroke-dashoffset="0" style="mix-blend-mode: normal"><path d="M83,311.5v-263h474v263z" fill="#ff9e7b" stroke="#2c2c2b" stroke-width="0" stroke-linecap="butt" stroke-linejoin="miter" stroke-miterlimit="10"/><path d="M494.53279,220.64993c-9.24312,58.75872 -56.25264,51.15753 -101.71426,45.89994c-45.46161,-5.25759 -53.98027,-19.90834 -44.79835,-61.32232c9.18194,-41.41399 38.61065,-71.1626 85.92468,-70.1351c47.31403,1.0275 69.83104,26.79877 60.58792,85.55749z" fill="#f7aa32" stroke="none" stroke-width="1.99937" stroke-linecap="round" stroke-linejoin="round" stroke-miterlimit="10"/><path d="M475.07121,254.43228c10.30725,9.83763 -36.3431,23.94061 -85.55747,13.95357c-49.21437,-9.98704 -47.37069,-32.39313 -45.16554,-43.69674c2.20514,-11.30361 39.29395,-22.85919 70.8695,-13.95357c31.57555,8.90562 41.88656,30.17877 59.85351,43.69674z" fill="#fbede4" stroke="none" stroke-width="1.99937" stroke-linecap="round" stroke-linejoin="round" stroke-miterlimit="10"/><path d="M388.74978,181.12721c-0.77821,6.44273 -5.16291,11.51545 -10.83471,11.24242c-5.6718,-0.27305 -11.42004,-5.97243 -9.7047,-12.23117c1.90399,-6.947 7.57366,-10.56063 10.83471,-11.24242c8.11605,-1.6968 10.57222,5.04892 9.7047,12.23117z" fill="#2c2c2b" stroke="none" stroke-width="1.99937" stroke-linecap="round" stroke-linejoin="round" stroke-miterlimit="10"/><path d="M406.38798,208.9503c-0.94768,6.41998 -4.87672,10.59803 -11.36627,10.59803c-6.48955,0 -11.60079,-5.26255 -11.75037,-11.75039c-0.14011,-6.07665 5.59539,-10.7467 12.08495,-10.7467c6.48955,0 11.7793,6.83446 11.03169,11.89906z" fill="#2c2c2b" stroke="none" stroke-width="1.99937" stroke-linecap="round" stroke-linejoin="round" stroke-miterlimit="10"/><path d="M412.28011,225.79072c-9.45012,0.98704 -20.62977,5.19786 -18.72718,-10.64878c-4.08907,13.41079 -10.68647,9.97862 -16.52398,8.44558" fill="none" stroke="#2c2c2b" stroke-width="6" stroke-linecap="round" stroke-linejoin="round" stroke-miterlimit="4"/><path d="M432.68194,185.51506c-0.77821,6.44273 -5.16291,11.51545 -10.83471,11.24242c-5.6718,-0.27305 -11.42004,-5.97243 -9.7047,-12.23117c1.90399,-6.947 7.57366,-10.56063 10.83471,-11.24242c8.11605,-1.6968 10.57222,5.04892 9.7047,12.23117z" fill="#2c2c2b" stroke="none" stroke-width="1.99937" stroke-linecap="round" stroke-linejoin="round" stroke-miterlimit="10"/><path d="M425.53415,135.76168l-46.09662,17.40072c1.49223,-11.70223 8.67168,-33.48722 20.45347,-36.63307c11.78178,-3.14585 20.13662,9.57688 25.64315,19.23237z" fill="#f7aa32" stroke="none" stroke-width="18" stroke-linecap="round" stroke-linejoin="round" stroke-miterlimit="4"/><path d="M461.55666,139.73027c8.51096,-4.9113 19.38852,-14.98224 29.30647,-7.02134c9.91794,7.9609 5.61584,26.75773 2.74748,40.29639z" fill="#f7aa32" stroke="none" stroke-width="18" stroke-linecap="round" stroke-linejoin="round" stroke-miterlimit="4"/><path d="M447.61303,283.21413l0.79129,-61.45616l58.29104,28.48612z" fill="#4cbf56" stroke="#45993d" stroke-width="5" stroke-linecap="round" stroke-linejoin="miter" stroke-miterlimit="10"/><path d="M272.93077,216.5h36.13846l25.43077,25.43077v36.13846l-25.43077,25.43077h-36.13846l-25.43077,-25.43077v-36.13846z" fill="#ec5959" stroke="#b84848" stroke-width="2" stroke-linecap="round" stroke-linejoin="round" stroke-miterlimit="10"/><path d="M158.52818,232.49913v-83.40889h21.66571v83.40424zM219.92028,232.49913v-83.40889h21.67078v83.40424z" data-paper-data="{&quot;isPaintingLayer&quot;:true}" fill="#ffae00" stroke="#d89400" stroke-width="2" stroke-linecap="butt" stroke-linejoin="miter" stroke-miterlimit="10"/><path d="M97.78745,166.88079l1.32618,-103l97.69528,47.74249z" fill="#4cbf56" stroke="#45993d" stroke-width="10" stroke-linecap="round" stroke-linejoin="miter" stroke-miterlimit="10"/></g></g></svg>